# xmcd CD Database Entry
#
# Track frame offsets:
# 150
# 14146
# 27974
# 42698
# 56220
# 69370
# 80771
# 95118
# 106552
# 118847
# 134219
# 147642
# 161915
# 175036
# 186237
# 198602
# 211470
# 223981
# 238856
# 253385
# 265619
#
# Disc length: 3743 seconds
#
# Revision: 3
# Processed by: cddbd v1.4PL0 Copyright (c) Steve Scherf et al.
# Submitted via: tcd 2.0b
#
DISCID=5f0e9d15
DTITLE=Gene Krupa - Bolero At The Savoy [CD1/2)
DYEAR=1900
DGENRE=
TTITLE0=You're Breaking My Heart All Over Again
TTITLE1=Down Argentina Way
TTITLE2=Moon Over Burma
TTITLE3=High On A Windy Hill
TTITLE4=I Hear Music
TTITLE5=Like The Fella Once Said
TTITLE6=Somewhere
TTITLE7=I'd Know You Anywhere
TTITLE8=How 'Bout That Mess
TTITLE9=You Danced With Dynamite
TTITLE10=When You Awake
TTITLE11=It All Comes Back To Me Now
TTITLE12=Hamtramck
TTITLE13=Yes, My Darling Daughter
TTITLE14=Full Dress Hop
TTITLE15=Sweet Georgia Brown
TTITLE16=Ih! They're Making Me All Over In The Army
TTITLE17=Deep In The Blues
TTITLE18=You Are The One
TTITLE19=Isn't That Just Like Love?
TTITLE20=You Forgot About Me
EXTD=History 20.1910-HI (P) 1997\n\nRecordings by the greatest mus
EXTD=icians of the Big Band Era 1929 - 1947
EXTT0=New York, September, 1940
EXTT1=New York, September, 1940
EXTT2=New York, September, 1940
EXTT3=New York, September, 1940
EXTT4=New York, September, 1940
EXTT5=New York, September, 1940
EXTT6=New York, September, 1940
EXTT7=New York, September, 1940
EXTT8=New York, September, 1940
EXTT9=New York, September, 1940
EXTT10=New York, September, 1940
EXTT11=New York, September, 1940
EXTT12=New York, September, 1940
EXTT13=New York, October 24, 1940
EXTT14=New York, October 24, 1940
EXTT15=New York, October 24, 1940
EXTT16=New York, October 24, 1940
EXTT17=New York, November 28, 1940
EXTT18=New York, November 28, 1940
EXTT19=New York, November 28, 1940
EXTT20=New York, November 28, 1940
PLAYORDER=
